<?xml version="1.0" standalone="no"?>
<!DOCTYPE svg PUBLIC "-//W3C//DTD SVG 20010904//EN"
 "http://www.w3.org/TR/2001/REC-SVG-20010904/DTD/svg10.dtd">
<svg version="1.0" xmlns="http://www.w3.org/2000/svg"
 width="934.000000pt" height="922.000000pt" viewBox="0 0 934.000000 922.000000"
 preserveAspectRatio="xMidYMid meet">

<g transform="translate(0.000000,922.000000) scale(0.100000,-0.100000)"
fill="#000000" stroke="none">
<path d="M2 4608 l3 -4613 2 4608 3 4607 4660 0 4660 0 3 -4607 2 -4608 3
4613 2 4612 -4670 0 -4670 0 2 -4612z"/>
<path d="M2251 8639 c-436 -94 -716 -401 -738 -810 -12 -214 44 -415 155 -555
144 -182 385 -330 727 -447 202 -69 233 -82 325 -130 191 -100 297 -221 335
-383 19 -77 19 -254 0 -323 -50 -190 -185 -314 -386 -357 -90 -19 -277 -14
-359 10 -260 77 -404 260 -428 541 l-7 90 -219 3 -219 2 6 -117 c11 -190 49
-308 147 -453 112 -164 355 -326 580 -386 219 -59 502 -59 724 1 77 20 208 82
282 133 79 53 174 149 224 225 156 239 173 612 39 890 -118 245 -374 432 -794
578 -293 101 -430 176 -542 291 -101 106 -133 188 -133 346 0 66 6 125 16 160
55 194 193 320 389 357 101 19 149 19 250 0 240 -45 399 -233 435 -515 7 -52
14 -101 16 -108 3 -10 51 -12 216 -10 l213 3 -2 100 c-3 225 -95 428 -272 605
-131 131 -255 203 -437 251 -119 32 -412 37 -543 8z"/>
<path d="M6043 8630 c-180 -41 -318 -129 -406 -259 -63 -92 -81 -133 -108
-236 -19 -76 -23 -115 -23 -255 0 -141 3 -177 23 -250 28 -103 131 -319 206
-428 30 -45 55 -90 55 -101 0 -12 -24 -38 -64 -70 -158 -124 -357 -352 -409
-470 -90 -203 -100 -476 -26 -701 70 -213 229 -390 432 -479 166 -72 226 -84
432 -85 204 0 237 6 426 79 79 31 147 67 218 115 57 38 112 70 122 70 10 0 30
-17 45 -37 15 -21 52 -71 82 -110 l54 -73 244 0 c134 0 244 3 244 6 0 5 -172
239 -227 309 -119 152 -159 224 -134 239 9 6 96 155 129 221 72 148 141 459
142 643 l0 72 -170 0 -170 0 0 -48 c0 -188 -108 -577 -167 -599 -20 -8 -9 -20
-203 242 -78 105 -153 206 -168 225 -15 19 -40 53 -57 76 -16 23 -50 68 -74
100 -151 200 -181 242 -181 256 0 8 70 73 156 143 257 212 371 354 426 530 30
94 32 318 4 410 -40 131 -116 249 -218 334 -156 131 -407 182 -635 131z m297
-322 c211 -71 289 -361 164 -609 -25 -51 -105 -137 -174 -190 -25 -19 -77 -60
-117 -92 -42 -33 -82 -57 -95 -57 -19 0 -35 20 -83 103 -123 210 -162 403
-116 571 43 155 106 239 209 275 75 26 134 26 212 -1z m-305 -1525 c24 -37 86
-122 174 -239 85 -113 392 -528 441 -597 19 -26 45 -62 57 -78 12 -17 20 -36
17 -43 -3 -7 -34 -34 -69 -60 -156 -115 -382 -179 -546 -156 -160 23 -292 119
-368 269 -90 175 -86 461 8 650 57 115 204 291 243 291 10 0 29 -17 43 -37z"/>
<path d="M2260 4081 c-354 -78 -613 -318 -734 -681 -67 -202 -76 -319 -76
-997 0 -672 9 -781 75 -980 94 -279 265 -482 510 -606 230 -115 628 -130 893
-33 215 79 397 251 484 458 43 102 76 244 89 375 8 88 7 118 -2 129 -10 12
-48 14 -218 12 l-206 -3 -17 -135 c-9 -74 -23 -161 -32 -193 -56 -204 -189
-324 -396 -357 -315 -49 -562 104 -664 411 -60 184 -61 192 -61 929 0 743 0
749 65 938 37 110 81 182 156 258 113 114 281 168 454 144 119 -16 179 -35
247 -79 135 -87 205 -231 233 -476 7 -61 14 -116 16 -122 3 -10 54 -13 213
-13 184 0 210 2 215 16 4 9 2 64 -4 122 -31 300 -113 495 -276 651 -118 114
-235 176 -418 223 -120 30 -426 35 -546 9z"/>
<path d="M6155 4070 c-219 -47 -371 -128 -512 -272 -71 -73 -118 -144 -160
-243 -50 -114 -58 -164 -57 -345 0 -219 25 -310 126 -462 123 -184 403 -361
768 -482 385 -128 560 -259 632 -474 24 -72 34 -226 20 -317 -25 -154 -130
-299 -265 -364 -101 -48 -190 -64 -327 -58 -262 11 -467 135 -549 332 -37 87
-61 188 -61 256 0 81 2 80 -225 77 l-200 -3 -3 -45 c-7 -97 31 -276 84 -397
126 -284 501 -515 877 -541 138 -9 326 1 417 23 309 74 529 248 638 502 70
165 74 482 8 669 -101 289 -384 511 -846 664 -335 111 -536 246 -615 412 -48
102 -62 194 -47 304 15 101 32 147 85 231 94 152 245 226 457 226 234 0 404
-104 501 -306 42 -89 68 -178 69 -238 0 -20 3 -51 6 -68 l7 -31 206 2 206 3
-2 90 c-6 226 -102 437 -278 611 -117 114 -247 186 -426 234 -121 33 -403 38
-534 10z"/>
</g>
</svg>
