<?xml version="1.0" standalone="no"?>
<!DOCTYPE svg PUBLIC "-//W3C//DTD SVG 20010904//EN"
 "http://www.w3.org/TR/2001/REC-SVG-20010904/DTD/svg10.dtd">
<svg version="1" xmlns="http://www.w3.org/2000/svg"
 width="934pt" height="922pt" viewBox="0 0 934 922"
 preserveAspectRatio="xMidYMid meet">

<g transform="matrix(0.1,0,0,-0.1,0,922)"
fill="#000000" stroke="none">
<path transform="matrix(1.1,0,0,1,-259.2,-169.3)" d="M -210.3 4574.7 l 3 -4613 l 2 4608 l 3 4607 l 4660 0 l 4660 0 l 3 -4607 l 2 -4608 l 3 4613 l 2 4612 l -4670 0 l -4670 0 l 2 -4612 z"/>
<path transform="matrix(1.1,0,0,1,-133.6,-257.6)" d="M 1919.9 8690.9 c -436 -94 -716 -401 -738 -810 c -12 -214 44 -415 155 -555 c 144 -182 385 -330 727 -447 c 202 -69 233 -82 325 -130 c 191 -100 297 -221 335 -383 c 19 -77 19 -254 0 -323 c -50 -190 -185 -314 -386 -357 c -90 -19 -277 -14 -359 10 c -260 77 -404 260 -428 541 l -7 90 l -219 3 l -219 2 l 6 -117 c 11 -190 49 -308 147 -453 c 112 -164 355 -326 580 -386 c 219 -59 502 -59 724 1 c 77 20 208 82 282 133 c 79 53 174 149 224 225 c 156 239 173 612 39 890 c -118 245 -374 432 -794 578 c -293 101 -430 176 -542 291 c -101 106 -133 188 -133 346 c 0 66 6 125 16 160 c 55 194 193 320 389 357 c 101 19 149 19 250 0 c 240 -45 399 -233 435 -515 c 7 -52 14 -101 16 -108 c 3 -10 51 -12 216 -10 l 213 3 l -2 100 c -3 225 -95 428 -272 605 c -131 131 -255 203 -437 251 c -119 32 -412 37 -543 8 z"/>
<path transform="matrix(1.1,0,0,1,-359.7,-258.4)" d="M 5925.9 8682.7 c -180 -41 -318 -129 -406 -259 c -63 -92 -81 -133 -108 -236 c -19 -76 -23 -115 -23 -255 c 0 -141 3 -177 23 -250 c 28 -103 131 -319 206 -428 c 30 -45 55 -90 55 -101 c 0 -12 -24 -38 -64 -70 c -158 -124 -357 -352 -409 -470 c -90 -203 -100 -476 -26 -701 c 70 -213 229 -390 432 -479 c 166 -72 226 -84 432 -85 c 204 0 237 6 426 79 c 79 31 147 67 218 115 c 57 38 112 70 122 70 c 10 0 30 -17 45 -37 c 15 -21 52 -71 82 -110 l 54 -73 l 244 0 c 134 0 244 3 244 6 c 0 5 -172 239 -227 309 c -119 152 -159 224 -134 239 c 9 6 96 155 129 221 c 72 148 141 459 142 643 l 0 72 l -170 0 l -170 0 l 0 -48 c 0 -188 -108 -577 -167 -599 c -20 -8 -9 -20 -203 242 c -78 105 -153 206 -168 225 c -15 19 -40 53 -57 76 c -16 23 -50 68 -74 100 c -151 200 -181 242 -181 256 c 0 8 70 73 156 143 c 257 212 371 354 426 530 c 30 94 32 318 4 410 c -40 131 -116 249 -218 334 c -156 131 -407 182 -635 131 z m 297 -322 c 211 -71 289 -361 164 -609 c -25 -51 -105 -137 -174 -190 c -25 -19 -77 -60 -117 -92 c -42 -33 -82 -57 -95 -57 c -19 0 -35 20 -83 103 c -123 210 -162 403 -116 571 c 43 155 106 239 209 275 c 75 26 134 26 212 -1 z m -305 -1525 c 24 -37 86 -122 174 -239 c 85 -113 392 -528 441 -597 c 19 -26 45 -62 57 -78 c 12 -17 20 -36 17 -43 c -3 -7 -34 -34 -69 -60 c -156 -115 -382 -179 -546 -156 c -160 23 -292 119 -368 269 c -90 175 -86 461 8 650 c 57 115 204 291 243 291 c 10 0 29 -17 43 -37 z"/>
<path transform="matrix(1.1,0,0,1,-132.1,-86.5)" d="M 1927.5 3967.9 c -354 -78 -613 -318 -734 -681 c -67 -202 -76 -319 -76 -997 c 0 -672 9 -781 75 -980 c 94 -279 265 -482 510 -606 c 230 -115 628 -130 893 -33 c 215 79 397 251 484 458 c 43 102 76 244 89 375 c 8 88 7 118 -2 129 c -10 12 -48 14 -218 12 l -206 -3 l -17 -135 c -9 -74 -23 -161 -32 -193 c -56 -204 -189 -324 -396 -357 c -315 -49 -562 104 -664 411 c -60 184 -61 192 -61 929 c 0 743 0 749 65 938 c 37 110 81 182 156 258 c 113 114 281 168 454 144 c 119 -16 179 -35 247 -79 c 135 -87 205 -231 233 -476 c 7 -61 14 -116 16 -122 c 3 -10 54 -13 213 -13 c 184 0 210 2 215 16 c 4 9 2 64 -4 122 c -31 300 -113 495 -276 651 c -118 114 -235 176 -418 223 c -120 30 -426 35 -546 9 z"/>
<path transform="matrix(1.1,0,0,1,-358.6,-87)" d="M 6036.8 3957.4 c -219 -47 -371 -128 -512 -272 c -71 -73 -118 -144 -160 -243 c -50 -114 -58 -164 -57 -345 c 0 -219 25 -310 126 -462 c 123 -184 403 -361 768 -482 c 385 -128 560 -259 632 -474 c 24 -72 34 -226 20 -317 c -25 -154 -130 -299 -265 -364 c -101 -48 -190 -64 -327 -58 c -262 11 -467 135 -549 332 c -37 87 -61 188 -61 256 c 0 81 2 80 -225 77 l -200 -3 l -3 -45 c -7 -97 31 -276 84 -397 c 126 -284 501 -515 877 -541 c 138 -9 326 1 417 23 c 309 74 529 248 638 502 c 70 165 74 482 8 669 c -101 289 -384 511 -846 664 c -335 111 -536 246 -615 412 c -48 102 -62 194 -47 304 c 15 101 32 147 85 231 c 94 152 245 226 457 226 c 234 0 404 -104 501 -306 c 42 -89 68 -178 69 -238 c 0 -20 3 -51 6 -68 l 7 -31 l 206 2 l 206 3 l -2 90 c -6 226 -102 437 -278 611 c -117 114 -247 186 -426 234 c -121 33 -403 38 -534 10 z"/>
</g>
</svg>
